<?xml version="1.0" encoding="UTF-8" standalone="no"?>
<svg
   xmlns:dc="http://purl.org/dc/elements/1.1/"
   xmlns:cc="http://creativecommons.org/ns#"
   xmlns:rdf="http://www.w3.org/1999/02/22-rdf-syntax-ns#"
   xmlns:svg="http://www.w3.org/2000/svg"
   xmlns="http://www.w3.org/2000/svg"
   xmlns:sodipodi="http://sodipodi.sourceforge.net/DTD/sodipodi-0.dtd"
   xmlns:inkscape="http://www.inkscape.org/namespaces/inkscape"
   version="1.1"
   id="Layer_1"
   x="0px"
   y="0px"
   width="30.011492"
   height="19.02269"
   viewBox="2.7755576e-17 0 30.011492 19.02269"
   enable-background="new 0 0 30.011 17.123"
   xml:space="preserve"
   sodipodi:docname="vk.svg"
   inkscape:version="1.0 (4035a4fb49, 2020-05-01)"><metadata
   id="metadata30"><rdf:RDF><cc:Work
       rdf:about=""><dc:format>image/svg+xml</dc:format><dc:type
         rdf:resource="http://purl.org/dc/dcmitype/StillImage" /><dc:title /></cc:Work></rdf:RDF></metadata><defs
   id="defs28" /><sodipodi:namedview
   inkscape:document-rotation="0"
   pagecolor="#ffffff"
   bordercolor="#666666"
   borderopacity="1"
   objecttolerance="10"
   gridtolerance="10"
   guidetolerance="10"
   inkscape:pageopacity="0"
   inkscape:pageshadow="2"
   inkscape:window-width="1366"
   inkscape:window-height="705"
   id="namedview26"
   showgrid="false"
   viewbox-x="0"
   fit-margin-top="1.9"
   lock-margins="false"
   fit-margin-left="1.9428903e-16"
   fit-margin-right="-2.7755576e-17"
   fit-margin-bottom="-2.7755576e-17"
   inkscape:zoom="25.523975"
   inkscape:cx="15.005851"
   inkscape:cy="10.461445"
   inkscape:window-x="-8"
   inkscape:window-y="-8"
   inkscape:window-maximized="1"
   inkscape:current-layer="Layer_1" />
<g
   id="g23"
   transform="translate(3.515981e-4,1.8999449)">
	<path
   fill="#FFFFFF"
   d="m 27.625,5.832 c -3.031,4.031 -3.359,3.656 -0.859,5.984 2.406,2.234 2.906,3.313 2.984,3.453 0,0 1,1.75 -1.109,1.766 l -4,0.063 c -0.859,0.172 -2,-0.609 -2,-0.609 -1.5,-1.031 -2.906,-3.703 -4,-3.359 0,0 -1.125,0.359 -1.094,2.766 0.016,0.516 -0.234,0.797 -0.234,0.797 0,0 -0.281,0.297 -0.828,0.344 H 14.688 C 10.735,17.287 7.25,13.646 7.25,13.646 7.25,13.646 3.437,9.707 0.093,1.848 -0.126,1.332 0.109,1.082 0.109,1.082 0.109,1.082 0.343,0.785 1,0.785 L 5.281,0.754 c 0.406,0.063 0.688,0.281 0.688,0.281 0,0 0.25,0.172 0.375,0.5 0.703,1.75 1.609,3.344 1.609,3.344 1.563,3.219 2.625,3.766 3.234,3.438 0,0 0.797,-0.484 0.625,-4.375 C 11.749,2.536 11.359,1.895 11.359,1.895 11,1.41 10.328,1.27 10.031,1.223 9.797,1.192 10.187,0.629 10.703,0.379 c 0.766,-0.375 2.125,-0.391 3.734,-0.375 1.266,0.016 1.625,0.094 2.109,0.203 1.484,0.359 0.984,1.734 0.984,5.047 0,1.063 -0.203,2.547 0.563,3.031 0.328,0.219 1.141,0.031 3.141,-3.375 0,0 0.938,-1.625 1.672,-3.516 0.125,-0.344 0.391,-0.484 0.391,-0.484 0,0 0.25,-0.141 0.594,-0.094 l 4.5,-0.031 c 1.359,-0.172 1.578,0.453 1.578,0.453 0.234,0.641 -0.501,2.141 -2.344,4.594 z"
   id="path21"
   style="fill:#ffffff" />
</g>
</svg>
