<?xml version="1.0" encoding="UTF-8" standalone="no"?>
<svg
   xmlns:dc="http://purl.org/dc/elements/1.1/"
   xmlns:cc="http://creativecommons.org/ns#"
   xmlns:rdf="http://www.w3.org/1999/02/22-rdf-syntax-ns#"
   xmlns:svg="http://www.w3.org/2000/svg"
   xmlns="http://www.w3.org/2000/svg"
   xmlns:sodipodi="http://sodipodi.sourceforge.net/DTD/sodipodi-0.dtd"
   xmlns:inkscape="http://www.inkscape.org/namespaces/inkscape"
   sodipodi:docname="drawin.svg"
   inkscape:version="1.0 (4035a4fb49, 2020-05-01)"
   id="svg8"
   version="1.1"
   viewBox="0 0 210 297"
   height="297mm"
   width="210mm">
  <defs
     id="defs2" />
  <sodipodi:namedview
     inkscape:window-maximized="1"
     inkscape:window-y="-8"
     inkscape:window-x="-8"
     inkscape:window-height="705"
     inkscape:window-width="1366"
     showgrid="false"
     inkscape:document-rotation="0"
     inkscape:current-layer="layer1"
     inkscape:document-units="mm"
     inkscape:cy="537.10352"
     inkscape:cx="574.17095"
     inkscape:zoom="1.4"
     inkscape:pageshadow="2"
     inkscape:pageopacity="0.0"
     borderopacity="1.0"
     bordercolor="#666666"
     pagecolor="#ffffff"
     id="base" />
  <metadata
     id="metadata5">
    <rdf:RDF>
      <cc:Work
         rdf:about="">
        <dc:format>image/svg+xml</dc:format>
        <dc:type
           rdf:resource="http://purl.org/dc/dcmitype/StillImage" />
        <dc:title></dc:title>
      </cc:Work>
    </rdf:RDF>
  </metadata>
  <g
     id="layer1"
     inkscape:groupmode="layer"
     inkscape:label="Layer 1">
    <g
       id="g42">
      <g
         id="g842"
         transform="translate(31.741371,55.000984)">
        <rect
           style="font-variation-settings:normal;opacity:1;vector-effect:none;fill:#959540;fill-opacity:1;fill-rule:nonzero;stroke:#9803aa;stroke-width:1.065;stroke-linecap:butt;stroke-linejoin:miter;stroke-miterlimit:4;stroke-dasharray:none;stroke-dashoffset:0;stroke-opacity:1;stop-color:#000000;stop-opacity:1"
           id="rect833"
           width="38.887714"
           height="27.528765"
           x="51.716656"
           y="66.55011"
           ry="0" />
        <path
           id="path837"
           style="font-variation-settings:normal;opacity:1;vector-effect:none;fill:#800000;fill-opacity:1;fill-rule:nonzero;stroke:#271429;stroke-width:1.065;stroke-linecap:butt;stroke-linejoin:miter;stroke-miterlimit:4;stroke-dasharray:none;stroke-dashoffset:0;stroke-opacity:1;stop-color:#000000;stop-opacity:1"
           d="m 99.491078,81.183118 c -4.81085,-1.815664 -5.52436,0.522268 -8.68626,6.347651 -2.08436,3.840159 -0.21796,-7.422986 -8.28536,-6.347651 -2.11785,0.282296 1.67168,-3.545043 3.96104,-3.988271 6.06935,4.475401 3.3766,-6.254206 4.52477,-4.096632 1.01183,1.901361 4.73622,2.44163 3.03145,4.080175 -2.73159,2.625482 5.45436,2.030955 5.45436,4.004728"
           sodipodi:nodetypes="csscssc" />
      </g>
      <g
         id="g32">
        <path
           d="m 164.32727,127.60065 c 1.77155,2.67118 0.88505,6.33709 -1.75901,8.0715 -2.91659,1.91317 -6.9051,0.94121 -8.7824,-1.94744 -2.05491,-3.16193 -0.99743,-7.47318 2.13587,-9.4933 3.4072,-2.19671 8.04132,-1.05368 10.20419,2.3243 2.33859,3.65244 1.10997,8.60954 -2.51273,10.91509 -3.89763,2.48052 -9.17779,1.16629 -11.62598,-2.70116 -2.6225,-4.14279 -1.22264,-9.74608 2.88959,-12.33688 4.38793,-2.76451 10.3144,-1.27899 13.04777,3.07802 2.90655,4.63305 1.33537,10.88275 -3.26645,13.75867 -4.87815,3.04862 -11.45112,1.39176 -14.46957,-3.45488 -3.1907,-5.12323 -1.44816,-12.01952 3.64331,-15.18046 5.36831,-3.33282 12.58793,-1.50457 15.89137,3.83174 3.47494,5.61336 1.56099,13.15636 -4.02017,16.60226 -5.85842,3.61708 -13.72481,1.61742 -17.31316,-4.2086 -3.75924,-6.10346 -1.67386,-14.29326 4.39703,-18.02406 6.34849,-3.9014 14.86172,-1.73029 18.73495,4.58546 4.04358,6.59352 1.78674,15.43019 -4.77389,19.44585 -6.83854,4.18576 -15.99867,1.84319 -20.15675,-4.96232 -4.32795,-7.08356 -1.89964,-16.56716 5.15076,-20.86764 7.32857,-4.47016 17.13565,-1.95611 21.57853,5.33918 4.61236,7.57358 2.01258,17.70416 -5.52761,22.28943 -7.81858,4.75458 -18.27266,2.06904 -23.00033,-5.71604 -4.89679,-8.06358 -2.12551,-18.84117 5.90447,-23.71122 8.30858,-5.03902 19.4097,-2.18199 24.42213,6.0929 5.18124,8.55357 2.23845,19.97821 -6.28134,25.13302 -8.79856,5.32347 -20.54674,2.29493 -25.84391,-6.46976 -5.46571,-9.04356 -2.35142,-21.11527 6.65819,-26.55482 9.28854,-5.60795 21.6838,-2.40789 27.26571,6.84662 4.20765,6.97606 3.73435,16.02967 -1.0976,22.57335"
           sodipodi:t0="0.27162367"
           sodipodi:argument="-61.349796"
           sodipodi:radius="20.526791"
           sodipodi:revolution="9.8679199"
           sodipodi:expansion="1"
           sodipodi:cy="130.40144"
           sodipodi:cx="159.50623"
           id="whill"
           style="fill:none;fill-rule:evenodd;stroke:#000000;stroke-width:0.264583"
           sodipodi:type="spiral" />
        <path
           inkscape:transform-center-y="-0.017466332"
           inkscape:transform-center-x="0.0174667"
           d="m 164.65621,130.30762 c 3.48765,-4.70901 -8.22301,6.3877 -4.65158,1.7419 2.35268,-3.06041 -2.76778,1.92153 0.89242,3.14799 5.55628,1.86179 -8.61611,-5.84664 -3.09407,-3.88564 3.63765,1.29181 -2.68277,-2.03853 -2.71814,1.82152 -0.0537,5.85966 2.89796,-10.00112 2.73934,-4.14336 -0.10449,3.8588 1.10974,-3.18141 -2.57231,-2.02222 -5.58946,1.75968 10.40714,-0.33439 4.78707,1.3249 -3.70223,1.09306 3.36863,0.0723 1.12836,-3.07132 -3.40079,-4.77212 3.53401,9.79445 0.21923,4.96219 -2.18361,-3.18325 0.97219,3.2261 3.26968,0.12404 z"
           inkscape:randomized="0"
           inkscape:rounded="-1.17976"
           inkscape:flatsided="false"
           sodipodi:arg2="1.2657683"
           sodipodi:arg1="0.027083049"
           sodipodi:r2="1.9751578"
           sodipodi:r1="5.2466812"
           sodipodi:cy="130.16554"
           sodipodi:cx="159.41145"
           sodipodi:sides="5"
           id="centerOfWhill"
           style="font-variation-settings:normal;opacity:1;vector-effect:none;fill:#800000;fill-opacity:1;fill-rule:nonzero;stroke:#271429;stroke-width:1.065;stroke-linecap:butt;stroke-linejoin:miter;stroke-miterlimit:4;stroke-dasharray:none;stroke-dashoffset:0;stroke-opacity:1;stop-color:#000000;stop-opacity:1"
           sodipodi:type="star" />
      </g>
    </g>
  </g>
</svg>
