<?xml version="1.0" encoding="UTF-8" standalone="no"?>
<svg
   xmlns:dc="http://purl.org/dc/elements/1.1/"
   xmlns:cc="http://creativecommons.org/ns#"
   xmlns:rdf="http://www.w3.org/1999/02/22-rdf-syntax-ns#"
   xmlns:svg="http://www.w3.org/2000/svg"
   xmlns="http://www.w3.org/2000/svg"
   xmlns:sodipodi="http://sodipodi.sourceforge.net/DTD/sodipodi-0.dtd"
   xmlns:inkscape="http://www.inkscape.org/namespaces/inkscape"
   sodipodi:docname="arrow-up.svg"
   inkscape:version="1.0 (4035a4fb49, 2020-05-01)"
   id="svg8"
   version="1.1"
   viewBox="0 0 6.76234 4.2768574"
   height="4.2768574mm"
   width="6.6623406mm">
  <defs
     id="defs2" />
  <sodipodi:namedview
     viewbox-width="6.76234"
     fit-margin-bottom="0"
     fit-margin-right="0"
     fit-margin-left="0"
     fit-margin-top="0"
     inkscape:window-maximized="1"
     inkscape:window-y="-8"
     inkscape:window-x="-8"
     inkscape:window-height="705"
     inkscape:window-width="1366"
     showgrid="false"
     inkscape:document-rotation="0"
     inkscape:current-layer="layer1"
     inkscape:document-units="mm"
     inkscape:cy="21.48481"
     inkscape:cx="-15.541532"
     inkscape:zoom="7.9195959"
     inkscape:pageshadow="2"
     inkscape:pageopacity="0.0"
     borderopacity="1.0"
     bordercolor="#666666"
     pagecolor="#ffffff"
     id="base" />
  <metadata
     id="metadata5">
    <rdf:RDF>
      <cc:Work
         rdf:about="">
        <dc:format>image/svg+xml</dc:format>
        <dc:type
           rdf:resource="http://purl.org/dc/dcmitype/StillImage" />
        <dc:title></dc:title>
      </cc:Work>
    </rdf:RDF>
  </metadata>
  <g
     transform="translate(-2.0300125,-153.32049)"
     id="layer1"
     inkscape:groupmode="layer"
     inkscape:label="Layer 1">
    <g
       transform="matrix(0.26458333,0,0,-0.26220253,-50.956104,157.36129)"
       id="g12">
	<path
   fill="#ffffff"
   d="m 213.55574,14.860848 c -0.391,0.391 -1.016,0.391 -1.406,0 l -11.594,-11.5780006 c -0.391,-0.391 -0.391,-1.031 0,-1.422 l 2.594,-2.57799998 c 0.391,-0.39100002 1.016,-0.39100002 1.406,0 l 8.297,8.29700018 8.297,-8.29700018 c 0.391,-0.39100002 1.016,-0.39100002 1.406,0 l 2.594,2.57799998 c 0.391,0.391 0.391,1.031 0,1.422 z"
   id="path10" />

<path
   id="path23"
   d="m 213.55574,14.860848 c -0.391,0.391 -1.016,0.391 -1.406,0 l -11.594,-11.5780006 c -0.391,-0.391 -0.391,-1.031 0,-1.422 l 2.594,-2.57799998 c 0.391,-0.39100002 1.016,-0.39100002 1.406,0 l 8.297,8.29700018 8.297,-8.29700018 c 0.391,-0.39100002 1.016,-0.39100002 1.406,0 l 2.594,2.57799998 c 0.391,0.391 0.391,1.031 0,1.422 z"
   fill="#ffffff" />
</g>
  </g>
</svg>
